# xmcd
#
# Track frame offsets: 
#        150
#        14449
#        35537
#        67190
#        92213
#        107592
#        128772
#        150962
#        170735
#        194500
#        216950
#        229917
#        252292
#        269050
#        289767
#        315236
#        339782
#
# Disc length: 4783 seconds
#
# Revision: 0
# Processed by: cddbd v1.5.2PL0 Copyright (c) Steve Scherf et al.
# Submitted via: ExactAudioCopy v1.3
#
DISCID=f612ad11
DTITLE=Various Artist - Blues - Golden Age '60s -'70s  vol.02  CD1
DYEAR=2017
DGENRE=Rock
TTITLE0=Dr. Feelgood (1976) - As Long As The Price Is Right
TTITLE1=The Doors (1971) - Been Down So Long
TTITLE2=Grand Funk Railroad (1973) - Creepin'
TTITLE3=Warhorse (1971) - Sybilla
TTITLE4=ZZ Top (1976) - Enjoy and Get It On
TTITLE5=Led Zeppelin (1969) - I Can't Quit You Baby
TTITLE6=Eagles (1979) - Those Shoes
TTITLE7=Nazareth (1973) - Alcatraz
TTITLE8=Bad Company (1975) - Feel Like Makin' Love
TTITLE9=Deep Purple (1974) - What's Goin' On Here
TTITLE10=Jimi Hendrix (1967) - Purple Haze
TTITLE11=Cream (1968) - White Room
TTITLE12=Free (1973) - Wishing Well
TTITLE13=Wishbone Ash (1976) - Mother Of Pearl
TTITLE14=Ac-Dc (1975) - Little Lover
TTITLE15=Budgie (1980) - Time To Remember
TTITLE16=Joe Cocker (1975) - Oh Mama
EXTD=
EXTT0=
EXTT1=
EXTT2=
EXTT3=
EXTT4=
EXTT5=
EXTT6=
EXTT7=
EXTT8=
EXTT9=
EXTT10=
EXTT11=
EXTT12=
EXTT13=
EXTT14=
EXTT15=
EXTT16=
PLAYORDER=
